<?xml version="1.0" encoding="UTF-8" standalone="no"?>
<svg xmlns="http://www.w3.org/2000/svg" width="1024" height="1024" viewBox="0 0 1024 1024">
  <!-- Paper -->
  <rect x="180" y="180" width="664" height="664" rx="50" ry="50" fill="#FFFFFF" stroke="#4A6CFA" stroke-width="16" />
  
  <!-- Note Lines -->
  <rect x="240" y="330" width="544" height="6" rx="3" ry="3" fill="#BDBDBD" />
  <rect x="240" y="410" width="544" height="6" rx="3" ry="3" fill="#BDBDBD" />
  <rect x="240" y="490" width="544" height="6" rx="3" ry="3" fill="#BDBDBD" />
  <rect x="240" y="570" width="544" height="6" rx="3" ry="3" fill="#BDBDBD" />
  <rect x="240" y="650" width="544" height="6" rx="3" ry="3" fill="#BDBDBD" />
  <rect x="240" y="730" width="320" height="6" rx="3" ry="3" fill="#BDBDBD" />
  
  <!-- Top bar with title -->
  <rect x="180" y="180" width="664" height="100" rx="50" ry="50" fill="#4A6CFA" />
  <text x="312" y="245" font-family="Arial, sans-serif" font-size="50" font-weight="bold" fill="#FFFFFF">NOTES</text>
  
  <!-- Checkmark -->
  <circle cx="680" cy="680" r="80" fill="#4CAF50" />
  <path d="M640 680 L670 710 L720 660" stroke="#FFFFFF" stroke-width="16" fill="none" stroke-linecap="round" stroke-linejoin="round" />
  
  <!-- Pencil -->
  <g transform="translate(832, 240) rotate(45)">
    <rect x="-30" y="-200" width="60" height="200" rx="10" ry="10" fill="#FFA000" />
    <polygon points="-30,-200 30,-200 0,-260" fill="#E65100" />
    <rect x="-20" y="0" width="40" height="20" rx="5" ry="5" fill="#795548" />
  </g>
</svg>