<?xml version="1.0" encoding="UTF-8" standalone="no"?>
<svg xmlns="http://www.w3.org/2000/svg" width="1024" height="1024" viewBox="0 0 1024 1024">
  <!-- Background Circle -->
  <circle cx="512" cy="512" r="512" fill="#4A6CFA" />
  
  <!-- Paper Background -->
  <rect x="210" y="210" width="604" height="604" rx="40" ry="40" fill="#FFFFFF" />
  
  <!-- Note Lines -->
  <rect x="260" y="320" width="504" height="4" rx="2" ry="2" fill="#BDBDBD" />
  <rect x="260" y="400" width="504" height="4" rx="2" ry="2" fill="#BDBDBD" />
  <rect x="260" y="480" width="504" height="4" rx="2" ry="2" fill="#BDBDBD" />
  <rect x="260" y="560" width="504" height="4" rx="2" ry="2" fill="#BDBDBD" />
  <rect x="260" y="640" width="504" height="4" rx="2" ry="2" fill="#BDBDBD" />
  <rect x="260" y="720" width="300" height="4" rx="2" ry="2" fill="#BDBDBD" />
  
  <!-- Checkbox (Checked) -->
  <rect x="630" y="680" width="80" height="80" rx="10" ry="10" fill="#4CAF50" />
  <path d="M650 720 L670 740 L710 700" stroke="#FFFFFF" stroke-width="12" fill="none" stroke-linecap="round" stroke-linejoin="round" />
  
  <!-- Top bar with title -->
  <rect x="210" y="210" width="604" height="80" rx="40" ry="40" fill="#4A6CFA" />
  <text x="332" y="265" font-family="Arial, sans-serif" font-size="40" font-weight="bold" fill="#FFFFFF">NOTES</text>
  
  <!-- Pencil -->
  <g transform="translate(800, 260) rotate(45)">
    <rect x="-30" y="-220" width="60" height="220" rx="10" ry="10" fill="#FFA000" />
    <polygon points="-30,-220 30,-220 0,-280" fill="#E65100" />
    <rect x="-20" y="0" width="40" height="20" rx="5" ry="5" fill="#795548" />
  </g>
</svg>